<?xml version="1.0" encoding="UTF-8" standalone="no"?>
<!-- Created with Inkscape (http://www.inkscape.org/) -->

<svg
   xmlns:dc="http://purl.org/dc/elements/1.1/"
   xmlns:cc="http://creativecommons.org/ns#"
   xmlns:rdf="http://www.w3.org/1999/02/22-rdf-syntax-ns#"
   xmlns:svg="http://www.w3.org/2000/svg"
   xmlns="http://www.w3.org/2000/svg"
   xmlns:sodipodi="http://sodipodi.sourceforge.net/DTD/sodipodi-0.dtd"
   xmlns:inkscape="http://www.inkscape.org/namespaces/inkscape"
   width="210mm"
   height="297mm"
   viewBox="0 0 744.09448819 1052.3622047"
   id="svg3335"
   version="1.1"
   inkscape:version="0.91 r13725"
   sodipodi:docname="2018.svg">
  <defs
     id="defs3337" />
  <sodipodi:namedview
     id="base"
     pagecolor="#ffffff"
     bordercolor="#666666"
     borderopacity="1.0"
     inkscape:pageopacity="0.0"
     inkscape:pageshadow="2"
     inkscape:zoom="0.35"
     inkscape:cx="-320.71429"
     inkscape:cy="520"
     inkscape:document-units="px"
     inkscape:current-layer="layer1"
     showgrid="false"
     inkscape:snap-text-baseline="true"
     inkscape:window-width="2560"
     inkscape:window-height="1407"
     inkscape:window-x="0"
     inkscape:window-y="33"
     inkscape:window-maximized="1" />
  <metadata
     id="metadata3340">
    <rdf:RDF>
      <cc:Work
         rdf:about="">
        <dc:format>image/svg+xml</dc:format>
        <dc:type
           rdf:resource="http://purl.org/dc/dcmitype/StillImage" />
        <dc:title></dc:title>
      </cc:Work>
    </rdf:RDF>
  </metadata>
  <g
     inkscape:label="Layer 1"
     inkscape:groupmode="layer"
     id="layer1">
    <g
       transform="translate(97.142857,77.142857)"
       style="font-style:normal;font-variant:normal;font-weight:200;font-stretch:normal;font-size:180px;line-height:125%;font-family:Exo;-inkscape-font-specification:'Exo, Ultra-Light';text-align:start;letter-spacing:0px;word-spacing:0px;writing-mode:lr-tb;text-anchor:start;fill:#000000;fill-opacity:1;stroke:none;stroke-width:1px;stroke-linecap:butt;stroke-linejoin:miter;stroke-opacity:1"
       id="flowRoot3343">
      <path
         d="m 105.26516,512.32726 52.56,-49.14 q 13.68,-12.6 18.9,-23.22 5.22,-10.62 5.22,-24.66 0,-13.14 -7.74,-20.52 -7.74,-7.38 -28.26,-7.38 l -34.74,0 0,-2.88 8.64,-0.36 q 17.64,-0.72 27.54,-0.72 38.88,0 38.88,32.22 0,14.22 -5.76,25.56 -5.76,11.16 -19.8,24.48 l -48.96,46.26 79.92,0 0,4.32 -86.4,0 0,-3.96 z"
         style=""
         id="path3371" />
      <path
         d="m 249.74328,516.28726 q -13.5,0 -22.32,-7.02 -8.64,-7.02 -8.64,-22.14 l 0,-74.52 q 0,-14.04 8.64,-21.6 8.82,-7.56 22.32,-7.56 l 24.12,0 q 15.66,0 22.86,8.1 7.38,7.92 7.38,21.06 l 0,74.52 q 0,29.16 -30.24,29.16 l -24.12,0 z m 24.12,-3.96 q 25.92,0 25.92,-25.2 l 0,-74.52 q 0,-12.24 -6.66,-18.72 -6.48,-6.48 -19.26,-6.48 l -24.12,0 q -12.06,0 -19.44,6.84 -7.2,6.66 -7.2,18.36 l 0,74.52 q 0,12.24 7.02,18.72 7.2,6.48 19.62,6.48 l 24.12,0 z"
         style=""
         id="path3373" />
      <path
         d="m 361.00297,387.94726 -30.24,10.98 0,-2.88 30.24,-12.96 4.32,0 0,133.2 -4.32,0 0,-128.34 z"
         style=""
         id="path3375" />
      <path
         d="m 432.73578,516.28726 q -14.4,0 -22.14,-6.12 -7.74,-6.12 -7.74,-18 l 0,-19.62 q 0,-9.9 5.94,-15.48 6.12,-5.76 12.78,-7.2 -8.28,-3.42 -12.24,-9.54 -3.96,-6.3 -3.96,-13.86 l 0,-15.3 q 0,-14.04 7.38,-20.7 7.38,-6.84 19.98,-6.84 l 24.48,0 q 12.6,0 18.72,6.66 6.12,6.48 6.12,20.88 l 0,15.3 q 0,7.38 -4.14,13.5 -3.96,6.12 -10.62,8.46 8.1,1.26 12.6,7.56 4.68,6.3 4.68,14.94 l 0,21.24 q 0,11.7 -7.2,18 -7.02,6.12 -20.34,6.12 l -24.3,0 z m 23.04,-69.12 q 7.38,0 12.24,-3.06 5.04,-3.06 7.38,-7.56 2.34,-4.68 2.34,-9.18 l 0,-15.84 q 0,-12.78 -5.04,-18.36 -4.86,-5.58 -15.48,-5.58 l -24.48,0 q -12.24,0 -17.64,5.76 -5.4,5.76 -5.4,18.18 l 0,15.84 q 0,8.28 5.76,14.04 5.94,5.76 17.1,5.76 l 23.22,0 z m 1.26,65.16 q 11.34,0 17.28,-4.86 5.94,-5.04 5.94,-14.76 l 0,-20.7 q 0,-11.52 -5.58,-16.2 -5.4,-4.68 -18.9,-4.68 l -23.22,0 q -5.04,0 -10.98,2.16 -5.76,1.98 -10.08,6.66 -4.32,4.68 -4.32,12.06 l 0,20.7 q 0,10.08 7.02,14.94 7.02,4.68 18.54,4.68 l 24.3,0 z"
         style=""
         id="path3377" />
    </g>
  </g>
</svg>
