<?xml version="1.0" encoding="UTF-8" standalone="no"?>
<!-- Created with Inkscape (http://www.inkscape.org/) -->

<svg
   xmlns:dc="http://purl.org/dc/elements/1.1/"
   xmlns:cc="http://creativecommons.org/ns#"
   xmlns:rdf="http://www.w3.org/1999/02/22-rdf-syntax-ns#"
   xmlns:svg="http://www.w3.org/2000/svg"
   xmlns="http://www.w3.org/2000/svg"
   xmlns:sodipodi="http://sodipodi.sourceforge.net/DTD/sodipodi-0.dtd"
   xmlns:inkscape="http://www.inkscape.org/namespaces/inkscape"
   width="210mm"
   height="297mm"
   viewBox="0 0 744.09448819 1052.3622047"
   id="svg3402"
   version="1.1"
   inkscape:version="0.91 r13725"
   sodipodi:docname="b.svg">
  <defs
     id="defs3404" />
  <sodipodi:namedview
     id="base"
     pagecolor="#ffffff"
     bordercolor="#666666"
     borderopacity="1.0"
     inkscape:pageopacity="0.0"
     inkscape:pageshadow="2"
     inkscape:zoom="0.35"
     inkscape:cx="-320.71429"
     inkscape:cy="520"
     inkscape:document-units="px"
     inkscape:current-layer="layer1"
     showgrid="false"
     inkscape:window-width="2560"
     inkscape:window-height="1056"
     inkscape:window-x="2560"
     inkscape:window-y="24"
     inkscape:window-maximized="1" />
  <metadata
     id="metadata3407">
    <rdf:RDF>
      <cc:Work
         rdf:about="">
        <dc:format>image/svg+xml</dc:format>
        <dc:type
           rdf:resource="http://purl.org/dc/dcmitype/StillImage" />
        <dc:title></dc:title>
      </cc:Work>
    </rdf:RDF>
  </metadata>
  <g
     inkscape:label="Layer 1"
     inkscape:groupmode="layer"
     id="layer1">
    <g
       style="font-style:normal;font-weight:normal;font-size:40px;line-height:125%;font-family:sans-serif;letter-spacing:0px;word-spacing:0px;fill:#000000;fill-opacity:1;stroke:none;stroke-width:1px;stroke-linecap:butt;stroke-linejoin:miter;stroke-opacity:1"
       id="text3410">
      <path
         sodipodi:type="inkscape:offset"
         inkscape:radius="0"
         inkscape:original="M 355.83984 332.03125 L 355.83984 463.79102 L 401.38086 463.79102 C 412.66086 463.79102 421.23914 461.09141 427.11914 455.69141 C 433.11914 450.29141 436.11914 440.75031 436.11914 427.07031 C 436.11914 417.23031 433.60055 409.85164 428.56055 404.93164 C 423.52055 399.89164 418.11937 396.71062 412.35938 395.39062 C 417.39938 393.95063 421.78 390.59055 425.5 385.31055 C 429.34 379.91055 431.25977 373.19039 431.25977 365.15039 C 431.25977 343.07039 420.87914 332.03125 400.11914 332.03125 L 355.83984 332.03125 z M 360.16016 335.99023 L 400.11914 335.99023 C 417.99914 335.99023 426.93945 345.04992 426.93945 363.16992 C 426.93945 372.40992 424.54023 379.79055 419.74023 385.31055 C 415.06023 390.83055 408.94086 393.58984 401.38086 393.58984 L 360.16016 393.58984 L 360.16016 335.99023 z M 360.16016 397.55078 L 401.38086 397.55078 C 407.02086 397.55078 412.11969 398.75039 416.67969 401.15039 C 421.35969 403.43039 425.02016 406.79047 427.66016 411.23047 C 430.42016 415.55047 431.80078 420.71094 431.80078 426.71094 C 431.80078 439.43094 429.22055 448.13055 424.06055 452.81055 C 418.90055 457.49055 411.34086 459.83008 401.38086 459.83008 L 360.16016 459.83008 L 360.16016 397.55078 z "
         style="font-style:normal;font-variant:normal;font-weight:200;font-stretch:normal;font-size:180px;line-height:125%;font-family:Exo;-inkscape-font-specification:'Exo, Ultra-Light';text-align:start;writing-mode:lr-tb;text-anchor:start"
         id="path3437"
         d="m 355.83984,332.03125 0,131.75977 45.54102,0 c 11.28,0 19.85828,-2.69961 25.73828,-8.09961 6,-5.4 9,-14.9411 9,-28.6211 0,-9.84 -2.51859,-17.21867 -7.55859,-22.13867 -5.04,-5.04 -10.44118,-8.22102 -16.20117,-9.54102 5.04,-1.43999 9.42062,-4.80007 13.14062,-10.08007 3.84,-5.4 5.75977,-12.12016 5.75977,-20.16016 0,-22.08 -10.38063,-33.11914 -31.14063,-33.11914 l -44.2793,0 z m 4.32032,3.95898 39.95898,0 c 17.88,0 26.82031,9.05969 26.82031,27.17969 0,9.24 -2.39922,16.62063 -7.19922,22.14063 -4.68,5.52 -10.79937,8.27929 -18.35937,8.27929 l -41.2207,0 0,-57.59961 z m 0,61.56055 41.2207,0 c 5.64,0 10.73883,1.19961 15.29883,3.59961 4.68,2.28 8.34047,5.64008 10.98047,10.08008 2.76,4.32 4.14062,9.48047 4.14062,15.48047 0,12.72 -2.58023,21.41961 -7.74023,26.09961 -5.16,4.68 -12.71969,7.01953 -22.67969,7.01953 l -41.2207,0 0,-62.2793 z" />
    </g>
  </g>
</svg>
